<?xml version="1.0" ?><!DOCTYPE svg  PUBLIC '-//W3C//DTD SVG 1.1//EN'  'http://www.w3.org/Graphics/SVG/1.1/DTD/svg11.dtd'><svg height="512px" style="enable-background:new 0 0 512 512;" version="1.1" viewBox="0 0 512 512" width="512px" xml:space="preserve" xmlns="http://www.w3.org/2000/svg" xmlns:xlink="http://www.w3.org/1999/xlink"><g id="_x33_12_x2C__mountain_x2C__landscape_x2C__hill_x2C__nature_x2C__tree"><g><path d="M222.512,331.471l0.032-0.021c0.595-0.313,1.177-0.668,1.741-1.021    l0.074-0.042l0.219-0.146l0.772-0.501l0.062-0.063l0.542-0.396l0.105-0.063l0.146-0.125c3.295-2.545,5.818-5.861,7.278-9.97    l0.032-0.083l0.063-0.188l0.053-0.146l0.041-0.105l0.063-0.207l0.021-0.063l0.084-0.271l0,0l0.072-0.271l0.021-0.063l0.053-0.209    l0.042-0.125l0.041-0.146l0.042-0.188l0.021-0.083l0.063-0.251l0.01-0.02c0.448-1.94,0.699-4.047,0.72-6.301l-0.283-1.585    l-0.01-0.062l-0.083-0.48l-0.021-0.063l-0.095-0.48c-2.243-10.949-6.811-18.771-13.496-23.424    c-5.599-3.879-12.785-5.59-21.431-5.131h-0.042l-0.46,0.021h-0.051l-0.96,0.083h-0.053l-0.458,0.042h-0.063l-0.449,0.041h-0.062    l-0.459,0.063h-0.062l-0.449,0.042l-0.063,0.021l-0.469,0.043l-0.063,0.02l-0.532,0.063l-0.458,0.063l-0.074,0.021l-0.46,0.063    h-0.072l-0.542,0.084l-1.961,0.354h-0.041h-0.021l-0.032,0.021h-0.031h-0.021h-0.042h-0.019h-0.042h-0.01l-0.167,0.021h-0.01    h-0.053h-0.053l-0.291-0.021H190.4l-0.032-0.021h-0.021l-0.093-0.02h-0.032h-0.021h-0.032c-0.177-0.042-0.344-0.105-0.5-0.188    h-0.053v-0.021l-0.093-0.042h-0.011l-0.042-0.021l0,0l-0.053-0.043l0,0l-0.051-0.02l0,0l-0.084-0.063h-0.01l-0.042-0.043h-0.011    l-0.03-0.02h-0.011l-0.042-0.043l0,0l-0.042-0.02l-0.011-0.021l-0.031-0.021h-0.011l-0.03-0.041h-0.011l-0.031-0.041h-0.021    l-0.021-0.021l-0.021-0.021l-0.021-0.021l-0.01-0.021l-0.032-0.021l-0.011-0.021l-0.03-0.021l-0.01-0.021l-0.021-0.021    l-0.011-0.021l-0.032-0.021l-0.01-0.021l-0.042-0.042l-0.021-0.021l-0.009-0.041l-0.021-0.021l-0.01-0.021l-0.021-0.021    l-0.021-0.021l-0.021-0.02l-0.01-0.021l-0.011-0.021l-0.021-0.041l-0.01-0.021l-0.021-0.021l-0.011-0.021l-0.02-0.021l-0.01-0.021    l-0.011-0.042l-0.021-0.021l-0.01-0.042h-0.011l-0.021-0.041l-0.011-0.021l-0.01-0.041l-0.011-0.021l-0.01-0.021l-0.021-0.02    v-0.043l-0.021-0.02v-0.021l-0.019-0.063c-2.879-7.217-5.152-12.182-7.875-15.853c-2.19-2.524-5.078-4.818-9.281-7.78    c-3.266-1.752-7.312-3.4-12.546-5.318c-0.846-0.313-1.523-1.064-1.69-2.023c-1.168-6.154-2.941-12.557-5.382-18.523    c-3.379-8.322-8.031-15.789-14.122-20.649c-5.903-4.735-13.266-7.05-22.287-5.36c-2.502,0.479-5.163,1.271-7.977,2.42    c-16.239,6.611-20.088,16.937-24.698,29.243c-1.375,3.713-2.835,7.613-4.692,11.66c-1.272,2.774-4.766,5.382-9.137,8.655    c-5.213,3.881-11.816,8.824-16.477,15.29c-5.633,7.801-10.774,12.077-15.04,15.623c-7.091,5.882-11.544,9.595-11.013,26.97    c1.867,10.889,7.717,17.104,15.342,20.504c7.979,3.547,18.021,4.131,27.647,3.713c38.38-1.689,75.676-1.543,113.711-1.396    l20.64,0.041C210.603,335.684,217.225,334.286,222.512,331.471 M398.539,196.474c5.464,2.796,10.073,6.174,13.984,10.263    c3.483,3.65,6.372,7.842,8.792,12.682c6.111-0.042,11.66-2.523,15.706-6.508l0.125-0.125c4.089-4.088,6.624-9.74,6.624-15.999    c0-6.174-2.483-11.784-6.498-15.853l-0.126-0.125c-4.087-4.088-9.74-6.633-15.998-6.633c-6.174,0-11.785,2.482-15.874,6.508    l-0.104,0.125C401.146,184.813,398.621,190.362,398.539,196.474z M332.656,309.193c0.063-0.25,0.167-0.48,0.302-0.688    c3.192-5.173,5.163-11.66,6.153-18.939c1.106-8.177,0.961-17.333-0.084-26.782l-0.04-0.459l0.011-0.771    c-0.616-5.194-1.492-10.451-2.578-15.666c-4.504-21.566-12.535-42.363-20.107-54.461c-5.234,8.197-10.574,19.816-14.893,32.811    c-5.621,16.938-9.479,36.169-9.032,53.21c0.439,16.583,4.985,31.017,15.999,38.901c1.837,1.314,3.869,2.461,6.08,3.4v-22.861    l-11.085-12.516c-0.96-1.105-0.867-2.773,0.228-3.754c1.105-0.98,2.796-0.877,3.756,0.229l7.102,8.01v-37.607l-8.916-10.242    c-0.971-1.105-0.856-2.795,0.249-3.775c1.116-0.959,2.806-0.854,3.776,0.271l4.891,5.611v-8.615c0-1.48,1.2-2.67,2.67-2.67    c1.471,0,2.672,1.189,2.672,2.67v41.154l7.477-9.053c0.918-1.146,2.607-1.313,3.734-0.375c1.137,0.938,1.303,2.607,0.375,3.754    l-11.586,14.038v35.522c2.251-0.813,4.273-1.877,6.09-3.191C328.568,314.449,330.811,312.03,332.656,309.193z M282.856,217.416    c-0.709-0.71-1.68-1.147-2.753-1.147c-1.074,0-2.056,0.438-2.754,1.147c-0.709,0.709-1.147,1.668-1.147,2.753    c0,1.063,0.438,2.044,1.147,2.753c0.698,0.709,1.68,1.148,2.754,1.148c1.073,0,2.044-0.439,2.753-1.148s1.147-1.689,1.147-2.753    C284.004,219.084,283.565,218.125,282.856,217.416z M280.104,210.929c2.544,0,4.858,1.022,6.527,2.712    c1.679,1.668,2.713,3.983,2.713,6.528s-1.034,4.86-2.713,6.528c-1.669,1.67-3.983,2.712-6.527,2.712    c-2.556,0-4.861-1.042-6.54-2.712c-1.669-1.668-2.701-3.983-2.701-6.528s1.032-4.86,2.701-6.528    C275.242,211.951,277.548,210.929,280.104,210.929z M406.934,280.555l-0.574,1.23l1.314-0.334    c1.335-0.396,2.586-1.043,3.682-1.939c1.095-0.896,1.991-2.002,2.66-3.213l0.573-1.23l-1.314,0.313    c-1.335,0.417-2.575,1.063-3.681,1.96C408.488,278.239,407.612,279.345,406.934,280.555z M400.467,284.017    c0.344-2.106,1.002-4.108,1.982-5.903c0.979-1.793,2.283-3.399,3.921-4.734c1.617-1.314,3.453-2.273,5.424-2.878    c1.991-0.604,4.12-0.855,6.3-0.73c1.407,0.063,2.491,1.251,2.43,2.67l-0.053,0.396c-0.344,2.106-0.991,4.108-1.971,5.903    c-0.98,1.793-2.295,3.399-3.922,4.734c-1.615,1.314-3.451,2.273-5.424,2.879c-1.991,0.604-4.129,0.854-6.299,0.729    c-1.418-0.063-2.503-1.251-2.439-2.67L400.467,284.017z M418.479,138.216c0-1.46,1.198-2.67,2.669-2.67    c1.48,0,2.671,1.21,2.671,2.67v15.603c0,1.48-1.19,2.67-2.671,2.67c-1.471,0-2.669-1.189-2.669-2.67V138.216z M460.697,153.484    c1.042-1.043,2.731-1.021,3.764,0.021c1.033,1.044,1.033,2.733-0.011,3.755l-11.034,11.033c-1.042,1.044-2.731,1.044-3.774,0    c-1.033-1.042-1.022-2.731,0.021-3.775L460.697,153.484z M479.73,194.117c1.471,0,2.669,1.209,2.669,2.669    c0,1.481-1.198,2.67-2.669,2.67h-15.613c-1.471,0-2.669-1.188-2.669-2.67c0-1.46,1.198-2.669,2.669-2.669H479.73z     M464.461,236.334c1.044,1.022,1.044,2.732,0,3.775c-1.042,1.043-2.743,1.043-3.774,0l-11.045-11.033    c-1.044-1.043-1.044-2.754,0-3.797c1.043-1.043,2.743-1.043,3.785,0L464.461,236.334z M377.846,157.26    c-1.041-1.043-1.041-2.732,0-3.775c1.043-1.043,2.732-1.043,3.775,0l11.035,11.033c1.043,1.044,1.043,2.733,0,3.775    c-1.044,1.044-2.734,1.044-3.775,0L377.846,157.26z M172.461,173.821c-4.036-8.093-21.036,0.417-21.076,0.438    c-1.314,0.646-2.921,0.125-3.578-1.189c-0.658-1.314-0.125-2.92,1.188-3.566c0.053-0.021,17.637-8.803,25.844-1.272    c8.208-7.53,25.793,1.251,25.854,1.272c1.314,0.646,1.835,2.252,1.189,3.566c-0.668,1.314-2.253,1.836-3.567,1.189    c-0.052-0.021-17.061-8.531-21.088-0.438h-0.011l-0.03,0.063l0,0l-0.031,0.042l0,0l-0.032,0.063l0,0l-0.032,0.063h-0.01    l-0.021,0.042l-0.011,0.021l-0.03,0.041l0,0l-0.042,0.043v0.021l-0.032,0.042h-0.011l-0.031,0.041l-0.011,0.021l-0.032,0.021    l-0.01,0.021l-0.03,0.042l-0.011,0.021l-0.042,0.021l-0.011,0.021l-0.031,0.021l-0.011,0.021l-0.031,0.041h-0.021l-0.03,0.043    l-0.01,0.02l-0.042,0.021l-0.01,0.021l-0.032,0.021l-0.021,0.021l-0.032,0.021l-0.01,0.021l-0.041,0.021h-0.021l-0.042,0.042l0,0    l-0.042,0.042h-0.021l-0.04,0.021l-0.011,0.021l-0.053,0.021l0,0l-0.052,0.041h-0.011l-0.051,0.021l0,0l-0.053,0.041h-0.011    l-0.052,0.021l0,0l-0.053,0.021h-0.009l-0.053,0.02l-0.011,0.021h-0.042l-0.021,0.021l-0.042,0.021h-0.02l-0.042,0.021h-0.032    l-0.031,0.021h-0.032h-0.032l-0.03,0.021h-0.031l-0.042,0.021h-0.021h-0.042l-0.021,0.021h-0.041h-0.021l-0.105,0.02h-0.019    h-0.042h-0.021l-0.042,0.021h-0.021h-0.042h-0.02h-0.042h-0.021h-0.053h-0.01h-0.053h-0.02h-0.042h-0.021h-0.053h-0.01h-0.051    h-0.021l-0.042-0.021h-0.021h-0.042h-0.021l-0.104-0.02h-0.021h-0.042l-0.021-0.021h-0.041h-0.021l-0.042-0.021h-0.021    l-0.042-0.021h-0.031h-0.03l-0.032-0.021h-0.032l-0.031-0.021h-0.032l-0.032-0.021l-0.019-0.021h-0.042l-0.01-0.021l-0.053-0.02    h-0.01l-0.053-0.021h-0.009l-0.053-0.021h-0.011l-0.042-0.041l0,0l-0.063-0.021l0,0l-0.062-0.041l0,0l-0.042-0.021l-0.021-0.021    l-0.042-0.021h-0.01l-0.041-0.042h-0.01l-0.042-0.042h-0.021l-0.031-0.021l-0.011-0.021l-0.042-0.021l-0.02-0.021l-0.021-0.021    l-0.021-0.021l-0.032-0.021l-0.021-0.02l-0.032-0.043h-0.021l-0.021-0.041l-0.019-0.021l-0.032-0.021l-0.011-0.021l-0.031-0.021    l-0.011-0.021l-0.032-0.042l-0.01-0.021l-0.041-0.021l-0.01-0.021l-0.032-0.041l0,0l-0.032-0.042l-0.01-0.021l-0.032-0.043h-0.01    l-0.032-0.041l-0.011-0.021l-0.019-0.042h-0.011l-0.032-0.063l0,0l-0.031-0.063l0,0l-0.032-0.042l0,0l-0.021-0.063H172.461z     M213.335,122.405c-4.036-8.072-21.036,0.417-21.078,0.438c-1.314,0.668-2.909,0.126-3.578-1.188    c-0.646-1.314-0.125-2.899,1.189-3.567c0.063-0.021,17.635-8.802,25.844-1.251c8.217-7.551,25.802,1.23,25.854,1.251    c1.314,0.668,1.846,2.253,1.188,3.567c-0.657,1.314-2.253,1.856-3.566,1.188c-0.053-0.021-17.053-8.51-21.088-0.438l-0.011,0.021    l-0.021,0.041l0,0l-0.042,0.063l0,0l-0.021,0.063h-0.011l-0.03,0.042v0.021l-0.032,0.042h-0.01l-0.021,0.041l-0.011,0.021    l-0.032,0.041l-0.01,0.021l-0.032,0.021l-0.01,0.021l-0.03,0.042l-0.01,0.02l-0.032,0.021l-0.01,0.021l-0.032,0.021l-0.011,0.021    l-0.031,0.042l-0.021,0.021l-0.02,0.021l-0.021,0.021l-0.021,0.021l-0.021,0.021l-0.032,0.021l-0.021,0.021l-0.032,0.021    l-0.021,0.021l-0.03,0.02l-0.011,0.021l-0.042,0.041h-0.01l-0.032,0.021l-0.021,0.021l-0.042,0.02l-0.008,0.021l-0.042,0.021    h-0.01l-0.042,0.041h-0.021l-0.042,0.042h-0.01l-0.051,0.021l0,0l-0.063,0.041l0,0l-0.042,0.021h-0.011l-0.051,0.021l-0.011,0.021    l-0.052,0.021h-0.011l-0.053,0.021h-0.01l-0.041,0.021l-0.021,0.021h-0.042l-0.021,0.021h-0.031l-0.032,0.021h-0.03l-0.042,0.021    h-0.021H216.4l-0.021,0.021h-0.042h-0.02l-0.042,0.021h-0.021l-0.042,0.021h-0.021l-0.104,0.021h-0.021h-0.042h-0.021h-0.042    h-0.02l-0.052,0.021h-0.021h-0.042h-0.021h-0.051h-0.011h-0.053h-0.021h-0.042h-0.021h-0.041h-0.021l-0.042-0.021h-0.021h-0.042    h-0.021h-0.04h-0.021l-0.105-0.021h-0.021l-0.041-0.021h-0.031l-0.032-0.021h-0.032h-0.031l-0.032-0.021h-0.03h-0.042    l-0.021-0.021h-0.042l-0.021-0.021h-0.041l-0.021-0.021h-0.042l-0.021-0.021l-0.042-0.021H214.7l-0.051-0.021h-0.011l-0.053-0.021    v-0.021l-0.063-0.021l0,0l-0.051-0.021l0,0l-0.063-0.041l0,0l-0.052-0.021l0,0l-0.053-0.042h-0.009l-0.042-0.041h-0.021    l-0.042-0.021l-0.01-0.021l-0.032-0.02l-0.021-0.021l-0.041-0.021h-0.01l-0.032-0.041l-0.021-0.021l-0.032-0.02l-0.021-0.021    l-0.032-0.021l-0.019-0.021l-0.021-0.021l-0.021-0.021l-0.032-0.021l-0.011-0.021l-0.042-0.021l-0.01-0.021l-0.032-0.042    l-0.011-0.021l-0.03-0.021l-0.01-0.021l-0.032-0.021l-0.021-0.02l-0.021-0.042l-0.011-0.021l-0.032-0.021l-0.01-0.021l-0.03-0.041    v-0.021l-0.032-0.041h-0.01l-0.032-0.042v-0.021l-0.032-0.042l0,0l-0.042-0.063l0,0l-0.021-0.063l0,0l-0.03-0.041L213.335,122.405    z M102.263,136.859c-4.036-8.072-21.046,0.418-21.088,0.439c-1.314,0.646-2.91,0.125-3.567-1.189    c-0.656-1.314-0.125-2.92,1.189-3.566c0.053-0.021,17.625-8.824,25.844-1.273c8.217-7.529,25.802,1.252,25.844,1.273    c1.314,0.646,1.856,2.252,1.188,3.566c-0.646,1.314-2.251,1.836-3.565,1.189c-0.042-0.021-17.042-8.531-21.089-0.439l0,0    l-0.021,0.063h-0.01l-0.032,0.063l0,0l-0.021,0.042h-0.02l-0.021,0.063l0,0l-0.042,0.041v0.021l-0.032,0.041l-0.01,0.021    l-0.021,0.021l-0.021,0.021l-0.021,0.043l-0.019,0.02l-0.021,0.021l-0.021,0.021l-0.021,0.042l-0.021,0.021l-0.021,0.021    l-0.021,0.021l-0.021,0.021l-0.021,0.02l-0.02,0.043h-0.021l-0.032,0.041l-0.021,0.021l-0.031,0.021l-0.021,0.021l-0.021,0.021    l-0.019,0.021l-0.042,0.021l-0.011,0.021l-0.032,0.021l-0.021,0.021l-0.032,0.021l-0.01,0.021l-0.041,0.021h-0.021l-0.042,0.042    h-0.011l-0.042,0.042h-0.01l-0.042,0.021h-0.01l-0.051,0.041l0,0l-0.063,0.021l0,0l-0.053,0.042h-0.01l-0.041,0.021h-0.021    l-0.042,0.021l-0.021,0.021l-0.042,0.021h-0.021l-0.04,0.021h-0.021l-0.042,0.021h-0.021l-0.032,0.021h-0.031l-0.03,0.021h-0.032    l-0.032,0.021h-0.031h-0.032l-0.03,0.021h-0.021h-0.042l-0.031,0.021h-0.032h-0.032l-0.104,0.02h-0.021l-0.042,0.021h-0.021    h-0.041h-0.021h-0.053h-0.021h-0.042h-0.021h-0.041h-0.021h-0.042h-0.021h-0.042h-0.021h-0.04h-0.021h-0.042h-0.021h-0.053h-0.01    l-0.051-0.021h-0.01l-0.116-0.02h-0.02h-0.042l-0.021-0.021h-0.042h-0.032l-0.032-0.021h-0.03h-0.032l-0.031-0.021h-0.032    l-0.032-0.021h-0.021l-0.04-0.021h-0.021l-0.042-0.021h-0.021l-0.042-0.021h-0.021l-0.041-0.021l-0.021-0.021l-0.042-0.021h-0.011    l-0.053-0.021l0,0l-0.062-0.042l0,0l-0.052-0.021h-0.011l-0.042-0.041h-0.011l-0.051-0.021l0,0l-0.053-0.042h-0.01l-0.042-0.042    h-0.01l-0.042-0.021l-0.011-0.021l-0.041-0.021l-0.021-0.021l-0.031-0.021l-0.011-0.021l-0.042-0.021l-0.021-0.021l-0.02-0.021    l-0.021-0.021l-0.032-0.021l-0.01-0.021l-0.042-0.041h-0.01l-0.032-0.043l-0.021-0.02l-0.019-0.021l-0.021-0.021l-0.021-0.021    l-0.021-0.021l-0.021-0.042l-0.021-0.021l-0.021-0.021l-0.021-0.02l-0.021-0.043l-0.02-0.021l-0.021-0.021l-0.011-0.021    l-0.031-0.041v-0.021l-0.032-0.041h-0.011l-0.021-0.063h-0.01l-0.032-0.042l0,0l-0.03-0.063l0,0L102.263,136.859L102.263,136.859z     M272.177,368.098l-0.584,1.23l1.324-0.313c1.283-0.396,2.471-1.022,3.536-1.856l0.135-0.104c1.116-0.918,2.003-2.002,2.669-3.212    l0.574-1.23l-1.314,0.333c-1.333,0.396-2.586,1.043-3.682,1.939C273.74,365.782,272.844,366.888,272.177,368.098z     M265.689,371.706c0.323-2.148,1-4.192,2.002-6.028c0.981-1.814,2.296-3.42,3.922-4.756c1.616-1.313,3.452-2.273,5.423-2.878    c1.993-0.604,4.12-0.855,6.299-0.729c1.409,0.063,2.504,1.25,2.431,2.67l-0.021,0.25c-0.322,2.148-0.989,4.191-2.002,6.049    c-0.991,1.814-2.304,3.421-3.911,4.734l-0.146,0.104c-1.585,1.272-3.38,2.19-5.287,2.774c-1.993,0.605-4.12,0.855-6.311,0.751    c-1.398-0.084-2.493-1.272-2.419-2.69L265.689,371.706z M240.263,310.236L240.263,310.236L240.263,310.236l-0.375-2.398    l-0.021-0.063l-0.105-0.543c-2.481-12.682-7.821-21.797-15.779-27.324c-6.154-4.256-13.777-6.3-22.798-6.133h-0.032l-0.521,0.021    h-0.042l-0.521,0.021h-0.032l-0.532,0.021h-0.021l-0.542,0.041h-0.021l-0.542,0.021h-0.032l-0.532,0.042h-0.042l-0.542,0.063    H197.2l-0.542,0.042h-0.031l-0.553,0.063l-0.584,0.063h-0.03l-0.553,0.063h-0.032c-0.772,0.104-1.565,0.209-2.356,0.334    c-2.358-6.445-4.276-10.597-7.093-14.205c-0.272-0.375-0.563-0.73-0.865-1.063c-0.97-1.294-1.993-2.482-3.107-3.567    c-2.076-2.023-4.403-3.713-7.228-5.277c7.049-7.445,11.669-9.344,14.935-10.7c2.034-0.854,3.65-1.522,5.173-2.962    c2.168-2.086,3.264-4.589,4.578-7.592c2.555-5.861,6.112-14.038,21.536-23.633c2.67-1.669,5.278-3.088,7.926-4.402    c2.629-1.292,5.435-2.564,8.365-3.879c0.938-0.438,1.523-1.334,1.563-2.295c1.023-18.605,7.947-34.958,19.295-47.119    c11.18-11.973,26.678-19.898,45.055-21.839c8.312-0.876,13.714,2.983,19.616,7.196c4.518,3.233,9.325,6.654,15.927,8.719    c2.669,0.835,5.078,1.523,7.238,2.128c11.304,3.212,15.874,4.526,23.194,19.294c2.314,4.693,3.983,9.324,5.109,14.08    c1.127,4.775,1.722,9.699,1.878,14.913c0.032,1.252,0.918,2.274,2.076,2.524c13.839,3.129,23.82,8.01,30.975,15.519    c7.165,7.509,11.649,17.792,14.465,31.685c0.282,1.355,1.564,2.273,2.921,2.105c17.207-2.086,29.724,2.838,38.88,12.057    c9.345,9.387,15.353,23.299,19.336,38.839c6.194,24.196-4.975,34.667-21.671,38.943l-0.209,0.062    c-15.019,3.797-34.511,2.9-50.5,2.17c-4.787-0.209-9.281-0.417-13.369-0.479c-10.293-0.146-20.589-0.209-30.871-0.229v26.281    c8.24-0.5,16.332-0.521,24.195-0.125c1.429-0.793,2.931-1.585,4.507-2.336c1.638-0.793,3.337-1.544,5.089-2.273    c7.238-2.963,14.496-4.902,21.38-5.82c7.217-0.979,14.038-0.875,20.024,0.251c1.439,0.271,2.399,1.669,2.127,3.108    c-0.27,1.459-1.668,2.398-3.107,2.127c-5.445-1.021-11.702-1.126-18.335-0.209c-6.456,0.855-13.267,2.691-20.065,5.465    l-1.138,0.48c2.232,0.229,4.454,0.5,6.644,0.793c14.205,1.96,27.398,5.402,39.007,10.053c1.364,0.543,2.022,2.107,1.48,3.463    c-0.542,1.377-2.097,2.044-3.462,1.48c-11.224-4.484-23.968-7.821-37.734-9.698c-13.309-1.836-27.574-2.337-42.353-1.294    c-17.929,1.272-34.804,4.715-49.874,9.804l-0.113,0.042c-15.541,5.256-29.182,12.307-40.049,20.546    c-1.18,0.876-2.858,0.646-3.734-0.521c-0.896-1.188-0.656-2.857,0.521-3.733c11.306-8.573,25.447-15.874,41.561-21.339    l0.094-0.042c2.023-0.668,4.057-1.314,6.133-1.939l-0.24-42.469l0.021-0.271l-0.011-2.587c3.225-1,6.102-2.461,8.646-4.275    c2.117-1.522,3.995-3.275,5.664-5.256c2.441,5.151,5.84,9.511,9.887,12.66c3.754,2.899,8.061,4.777,12.662,5.277v2.336    c-9.711,0-19.431,0.021-29.14,0h-2.358l0.178,33.062c11.461-3.087,23.727-5.257,36.555-6.362v-36.877l0.01-0.293v-12.41    l11.587-14.059c0.929-1.148,0.762-2.816-0.376-3.755c-1.126-0.918-2.814-0.772-3.742,0.376l-7.469,9.052v-41.153    c0-1.461-1.198-2.67-2.668-2.67c-1.471,0-2.672,1.209-2.672,2.67v8.635l-4.891-5.631c-0.97-1.105-2.66-1.231-3.775-0.271    c-1.105,0.98-1.22,2.67-0.251,3.775l8.917,10.262v17.021l-7.102-8.031c-0.959-1.084-2.648-1.189-3.744-0.229    c-1.095,0.98-1.2,2.649-0.229,3.755l11.075,12.515v22.903c-3.357-0.501-6.519-1.94-9.313-4.109    c-3.754-2.92-6.883-7.154-9.012-12.265l-0.5-1.272c3.223-5.633,5.215-12.411,6.236-19.899c1.168-8.636,1.023-18.21-0.062-28.055    c0.021-6.069,1.938-12.077,5.007-16.458c2.742-3.941,6.393-6.527,10.303-6.527c4.108,0,7.863,2.23,10.617,5.84    c2.92,3.797,4.734,9.115,4.734,15.018c0,1.377-0.104,2.691-0.281,3.963c-0.178,1.294-0.449,2.545-0.804,3.713l-0.011,0.063    c-0.27,0.876-0.072,1.877,0.605,2.606c2.838,3.004,5.162,6.821,6.769,11.201c1.544,4.256,2.419,9.053,2.419,14.121    c0,9.053-2.784,17.209-7.268,23.07c-2.473,3.232-5.455,5.756-8.771,7.342v5.778c5.006-1.815,9.47-5.257,13.006-9.888    c5.162-6.758,8.373-16.061,8.373-26.303c0-5.693-0.989-11.096-2.753-15.936c-1.669-4.547-4.025-8.614-6.882-11.932    c0.249-1,0.447-2.043,0.593-3.086c0.22-1.544,0.345-3.129,0.345-4.715c0-7.092-2.23-13.558-5.84-18.251    c-3.756-4.923-9.012-7.946-14.852-7.946c-5.777,0-10.951,3.504-14.664,8.822c-1.115,1.586-2.097,3.338-2.93,5.215    c-0.199-1.043-0.408-2.064-0.616-3.087c-5.047-24.217-14.517-47.6-23.017-59.468c-0.156-0.229-0.365-0.438-0.605-0.605    c-1.146-0.813-2.743-0.541-3.556,0.605c-6.133,8.572-12.61,22.026-17.669,37.254c-5.798,17.438-9.762,37.273-9.291,54.941    c0.479,18.105,5.62,33.999,18.137,42.947c2.773,1.981,5.922,3.629,9.469,4.859l0.043,10.138    c-29.505-0.083-59.009-0.125-88.524-0.146c0.949-0.563,1.867-1.168,2.732-1.836c4.337-3.254,7.635-7.571,9.47-12.912l0.062-0.166    l0.042-0.167l0.084-0.229l0.021-0.084l0.104-0.333l0,0l0.104-0.334l0.021-0.063l0.074-0.271l0.042-0.146l0.051-0.188l0.063-0.23    l0.021-0.104l0.083-0.313v-0.021l0.084-0.354v-0.042l0.074-0.292l0.03-0.125l0.042-0.229l0.042-0.209l0.021-0.146l0.063-0.292    l0.072-0.438l0.053-0.334l0.021-0.104l0.042-0.251l0.019-0.188l0.021-0.188l0.042-0.271v-0.083l0.042-0.354v-0.021l0.042-0.375    l0.011-0.063l0.03-0.313l0.01-0.146l0.011-0.229l0.021-0.25l0.011-0.125l0.021-0.334v-0.042l0.021-0.375l0.01-0.063v-0.334    l0.011-0.146v-0.229l0.01-0.23v-0.166v-0.334V310.236z" style="fill-rule:evenodd;clip-rule:evenodd;"/></g></g><g id="Layer_1"/></svg>